<svg xmlns="http://www.w3.org/2000/svg" viewBox="-76 -76 152 152">
  <!-- the spark from the end card (src/scenes/s8.js), at rest and upright -->
  <g fill="#D97757" stroke="#D97757" stroke-width="3" stroke-linejoin="round">
    <polygon points="8,0.15 1.31,-71.3 -8,-0.15"/>
    <polygon points="5.13,3.1 24.7,-40.87 -5.13,-3.1"/>
    <polygon points="3.83,7.03 63.31,-34.48 -3.83,-7.03"/>
    <polygon points="-0.08,6 48.09,0.67 0.08,-6"/>
    <polygon points="-3.89,6.99 63.08,35.1 3.89,-6.99"/>
    <polygon points="-5.18,3.03 24.12,41.29 5.18,-3.03"/>
    <polygon points="-8,-0.02 -0.14,72.91 8,0.02"/>
    <polygon points="-5.24,-2.92 -25,44.82 5.24,2.92"/>
    <polygon points="-4.14,-6.85 -63.58,38.39 4.14,6.85"/>
    <polygon points="0.09,-6 -51.97,-0.77 -0.09,6"/>
    <polygon points="4.15,-6.84 -59.42,-36 -4.15,6.84"/>
    <polygon points="5.21,-2.98 -25.53,-44.66 -5.21,2.98"/>
  </g>
  <circle r="10" fill="#D97757"/>
</svg>
